<svg width="21" height="17" viewBox="0 0 21 17" fill="none" xmlns="http://www.w3.org/2000/svg">
<path d="M12.75 13.5H1.5L1.49775 2.1795L10.0732 8.1165C10.1986 8.20327 10.3475 8.24975 10.5 8.24975C10.6525 8.24975 10.8014 8.20327 10.9268 8.1165L19.5 2.1825V9H21V1.5C20.9994 1.10236 20.8412 0.721173 20.56 0.439997C20.2788 0.158821 19.8976 0.000595125 19.5 0H1.5C1.1023 0.000397108 0.720997 0.15856 0.439778 0.439779C0.15856 0.720997 0.000397108 1.1023 0 1.5V13.5C0.000595125 13.8976 0.158821 14.2788 0.439997 14.56C0.721173 14.8412 1.10236 14.9994 1.5 15H12.75V13.5ZM17.8492 1.5L10.5 6.588L3.15075 1.5H17.8492Z" fill="white"/>
<path d="M18 16.5C19.6569 16.5 21 15.1569 21 13.5C21 11.8431 19.6569 10.5 18 10.5C16.3431 10.5 15 11.8431 15 13.5C15 15.1569 16.3431 16.5 18 16.5Z" fill="white"/>
</svg>
