<svg width="42" height="41" viewBox="0 0 42 41" fill="none" xmlns="http://www.w3.org/2000/svg">
<path d="M29.4078 14.1373C30.4516 14.1373 31.2978 13.3112 31.2978 12.2923C31.2978 11.2733 30.4516 10.4473 29.4078 10.4473C28.364 10.4473 27.5178 11.2733 27.5178 12.2923C27.5178 13.3112 28.364 14.1373 29.4078 14.1373Z" fill="#D1DAF8"/>
<path d="M21 12.605C19.4004 12.605 17.8367 13.068 16.5067 13.9355C15.1767 14.8031 14.1401 16.0361 13.528 17.4787C12.9159 18.9214 12.7557 20.5088 13.0678 22.0403C13.3798 23.5718 14.1501 24.9785 15.2812 26.0827C16.4122 27.1868 17.8533 27.9388 19.4222 28.2434C20.991 28.548 22.6172 28.3917 24.095 27.7941C25.5728 27.1966 26.8359 26.1846 27.7246 24.8863C28.6133 23.588 29.0876 22.0615 29.0876 20.5C29.0876 18.4061 28.2355 16.398 26.7188 14.9174C25.2021 13.4368 23.145 12.605 21 12.605ZM21 25.625C19.9616 25.625 18.9466 25.3245 18.0832 24.7613C17.2199 24.1982 16.547 23.3978 16.1496 22.4613C15.7523 21.5248 15.6483 20.4944 15.8509 19.5002C16.0534 18.5061 16.5534 17.5929 17.2877 16.8761C18.0219 16.1594 18.9574 15.6713 19.9758 15.4735C20.9942 15.2758 22.0498 15.3773 23.0091 15.7652C23.9684 16.1531 24.7883 16.8099 25.3652 17.6527C25.9421 18.4955 26.25 19.4864 26.25 20.5C26.25 21.8593 25.6969 23.1628 24.7123 24.124C23.7277 25.0851 22.3924 25.625 21 25.625Z" fill="#D1DAF8"/>
<path d="M21 7.89506C25.2052 7.89506 25.704 7.91044 27.3643 7.98475C28.3629 7.99632 29.3521 8.17531 30.2886 8.51391C30.968 8.76976 31.585 9.16164 32.1 9.66431C32.6149 10.167 33.0163 10.7693 33.2784 11.4326C33.6253 12.3468 33.8086 13.3124 33.8205 14.2872C33.8966 15.908 33.9124 16.3949 33.9124 20.5013C33.9124 24.6077 33.8966 25.092 33.8205 26.7128C33.8086 27.6876 33.6253 28.6532 33.2784 29.5674C33.0163 30.2307 32.6149 30.833 32.1 31.3357C31.585 31.8384 30.968 32.2302 30.2886 32.4861C29.3521 32.8247 28.3629 33.0037 27.3643 33.0152C25.704 33.0896 25.2052 33.1049 21 33.1049C16.7948 33.1049 16.296 33.0896 14.6357 33.0152C13.6371 33.0037 12.6479 32.8247 11.7114 32.4861C11.032 32.2302 10.415 31.8384 9.90003 31.3357C9.38509 30.833 8.98366 30.2307 8.72156 29.5674C8.37471 28.6532 8.19136 27.6876 8.1795 26.7128C8.10337 25.092 8.08763 24.6051 8.08763 20.5C8.08763 16.3949 8.10337 15.908 8.1795 14.2872C8.19136 13.3124 8.37471 12.3468 8.72156 11.4326C8.98366 10.7693 9.38509 10.167 9.90003 9.66431C10.415 9.16164 11.032 8.76976 11.7114 8.51391C12.6479 8.17531 13.6371 7.99632 14.6357 7.98475C16.296 7.91044 16.7948 7.89506 21 7.89506V7.89506ZM21 5.125C16.7226 5.125 16.1858 5.14294 14.5058 5.21725C13.1995 5.243 11.9072 5.48474 10.6838 5.93219C9.63733 6.32719 8.68699 6.93128 7.89366 7.70572C7.10033 8.48016 6.48152 9.40786 6.07688 10.4294C5.61836 11.6241 5.37073 12.8861 5.3445 14.1617C5.26838 15.8017 5.25 16.3231 5.25 20.5C5.25 24.6769 5.26838 25.1996 5.3445 26.8396C5.37088 28.1148 5.61851 29.3763 6.07688 30.5706C6.48152 31.5921 7.10033 32.5198 7.89366 33.2943C8.68699 34.0687 9.63733 34.6728 10.6838 35.0678C11.9076 35.5154 13.2004 35.7571 14.5071 35.7827C16.1871 35.8571 16.7226 35.875 21 35.875C25.2774 35.875 25.8142 35.8571 27.4942 35.7827C28.8009 35.7571 30.0937 35.5154 31.3176 35.0678C32.364 34.6728 33.3143 34.0687 34.1077 33.2943C34.901 32.5198 35.5198 31.5921 35.9244 30.5706C36.3825 29.3758 36.6297 28.1138 36.6555 26.8383C36.7316 25.1983 36.75 24.6769 36.75 20.5C36.75 16.3231 36.7316 15.8004 36.6555 14.1604C36.6291 12.8852 36.3815 11.6237 35.9231 10.4294C35.5185 9.40786 34.8997 8.48016 34.1063 7.70572C33.313 6.93128 32.3627 6.32719 31.3163 5.93219C30.0923 5.48503 28.7995 5.24372 27.4929 5.21853C25.8129 5.14166 25.2787 5.125 21 5.125Z" fill="#D1DAF8"/>
</svg>
