<svg width="225" height="129" viewBox="0 0 225 129" fill="none" xmlns="http://www.w3.org/2000/svg">
<path d="M166.637 20.303L225 127.143L193.569 127.569L149.565 44.4702L130.308 71.7131L168.614 127.569H136.731L47.623 0.439403L78.7431 0.0129236L111.672 50.5572L147.691 0.0129236L156.194 0L166.65 20.2772L166.637 20.303Z" fill="#D1C6B8"/>
<path d="M24.4903 127.571L24.4773 42.5461L68.534 105.316L53.5038 128.268H81.5093L97.9481 104.347L83.8743 85.0131L83.8484 85.0518L24.4644 0.221245V0.156627L4.74297 0.0920093L0.0258472 0.0661621V0.0790857H0.0129236V6.20488L0 12.3565L0.0129236 12.3694V127.532L24.4903 127.571Z" fill="#D1C6B8"/>
</svg>
