<svg width="49" height="9" viewBox="0 0 49 9" fill="none" xmlns="http://www.w3.org/2000/svg">
<path d="M39.2 4.5C39.2 6.98528 41.3938 9 44.1 9C46.8062 9 49 6.98528 49 4.5C49 2.01472 46.8062 -9.58943e-08 44.1 -2.14186e-07C41.3938 -3.32477e-07 39.2 2.01472 39.2 4.5Z" fill="#D1C6B8"/>
<path d="M19.5999 4.5C19.5999 6.98528 21.7937 9 24.4999 9C27.2061 9 29.3999 6.98528 29.3999 4.5C29.3999 2.01472 27.2061 -9.58943e-08 24.4999 -2.14186e-07C21.7937 -3.32477e-07 19.5999 2.01472 19.5999 4.5Z" fill="#D1C6B8"/>
<path d="M-0.000194746 4.5C-0.000194855 6.98528 2.19361 9 4.8998 9C7.606 9 9.7998 6.98528 9.7998 4.5C9.7998 2.01472 7.606 -9.58942e-08 4.89981 -2.14186e-07C2.19361 -3.32477e-07 -0.000194638 2.01472 -0.000194746 4.5Z" fill="#D1C6B8"/>
</svg>
