<svg width="33" height="33" viewBox="0 0 33 33" fill="none" xmlns="http://www.w3.org/2000/svg">
<path d="M32.259 27.9194L24.3661 20.0257C25.5965 18.0059 26.2456 15.6856 26.2417 13.3205C26.2417 6.18296 20.0572 1.68906e-07 12.9203 1.68906e-07C11.2235 -0.00027422 9.54329 0.333764 7.9756 0.983036C6.40791 1.63231 4.98348 2.58409 3.78366 3.78402C2.58384 4.98395 1.63215 6.40852 0.982942 7.97636C0.333733 9.5442 -0.000274194 11.2246 1.6889e-07 12.9216C1.6889e-07 20.057 6.18446 26.2421 13.3192 26.2421C15.6062 26.2441 17.8522 25.6355 19.8254 24.4791L27.7601 32.4188C28.1332 32.791 28.6387 33 29.1657 33C29.6928 33 30.1983 32.791 30.5714 32.4188L32.541 30.449C33.3159 29.674 33.0339 28.6944 32.259 27.9194ZM3.97677 12.9216C3.97649 11.7468 4.20762 10.5835 4.65696 9.49804C5.10629 8.41261 5.76502 7.42634 6.59553 6.59555C7.42605 5.76477 8.41207 5.10574 9.49729 4.65611C10.5825 4.20648 11.7457 3.97506 12.9203 3.97506C17.862 3.97506 22.2649 8.37624 22.2649 13.3205C22.2643 15.6931 21.3217 17.9684 19.6442 19.646C17.9666 21.3237 15.6916 22.2665 13.3192 22.267C8.37753 22.2649 3.97677 17.8617 3.97677 12.9216Z" fill="#D1DAF8"/>
</svg>
